<svg xmlns="http://www.w3.org/2000/svg" width="200" height="200" viewBox="0 0 200 200">
<!-- SVG created with Arrow, by QuiverAI (https://quiver.ai) -->
  <path d="m18.74 151.5h-7.38v-3.81h19.54v3.81h-7.45v21.3h-4.71v-21.3z" fill="#231815"/>
  <path d="m42.84 165.8-2.35 6.96h-4.47l8.39-25.11h5.53l8.5 25.11h-4.85l-2.51-6.96h-8.24zm7.33-3.42-2.18-6.05c-0.53-1.57-0.97-3.15-1.37-4.57h-0.09c-0.38 1.4-0.76 3.02-1.25 4.54l-2.13 6.08h7.02z" fill="#231815"/>
  <path d="m65.81 167.8c1.63 0.99 4.01 1.77 6.6 1.77 3.08 0 4.83-1.44 4.83-3.58 0-1.94-1.31-3.1-4.63-4.29-4.2-1.49-6.89-3.7-6.89-7.23 0-3.98 3.3-7.01 8.87-7.01 2.84 0 4.98 0.64 6.32 1.37l-1.19 3.68c-0.99-0.56-2.86-1.31-5.26-1.31-3.03 0-4.24 1.65-4.24 3.11 0 1.98 1.47 2.93 4.95 4.29 4.45 1.72 6.65 3.93 6.65 7.46 0 4.01-3.05 7.33-9.66 7.33-2.75 0-5.65-0.82-7.08-1.74l1.14-3.85h-0.41z" fill="#231815"/>
  <path d="m93.82 147.7v14.68c0 5.07 2.14 7.42 5.32 7.42 3.45 0 5.52-2.38 5.52-7.42v-14.68h4.31v14.4c0 7.7-3.76 11.12-9.99 11.12-5.95 0-9.56-3.22-9.56-11.09v-14.43h4.4z" fill="#231815"/>
  <path d="m117.7 147.7h4.67v10.96h0.11c0.64-1.05 1.31-2.03 1.97-2.97l6.73-7.99h5.39l-8.69 10.26 9.25 14.85h-5.25l-7.16-11.93-2.35 2.9v9.03h-4.67v-25.11z" fill="#231815"/>
  <path d="m148 147.7v14.68c0 5.07 2.14 7.42 5.32 7.42 3.45 0 5.51-2.38 5.51-7.42v-14.68h4.32v14.4c0 7.7-3.76 11.12-9.99 11.12-5.95 0-9.56-3.22-9.56-11.09v-14.43h4.4z" fill="#231815"/>
  <path d="m69.63 183.5c0.65-0.14 1.53-0.21 2.36-0.21 1.27 0 2.09 0.25 2.68 0.8 0.46 0.44 0.74 1.12 0.74 1.9 0 1.33-0.8 2.21-1.81 2.57v0.05c0.74 0.27 1.2 1.01 1.43 2.08 0.34 1.42 0.59 2.38 0.8 2.79h-1.07c-0.17-0.32-0.4-1.19-0.69-2.44-0.31-1.39-0.86-1.93-1.99-1.98h-1.43v4.42h-1.02v-9.98zm1.02 4.72h1.52c1.39 0 2.28-0.83 2.28-2.09 0-1.42-0.97-2.02-2.34-2.02-0.63 0-1.1 0.07-1.33 0.13v3.98h-0.13z" fill="#000"/>
  <path d="m80.52 190.1-1.1 3.32h-1.03l3.42-10.09h1.18l3.42 10.09h-1.05l-1.14-3.32h-3.7zm3.43-0.83-1.06-3.09c-0.23-0.71-0.38-1.32-0.53-1.91h-0.05c-0.14 0.63-0.3 1.25-0.51 1.89l-1.06 3.11h3.21z" fill="#000"/>
  <path d="m97.77 188.9c-0.07-1.45-0.17-3.19-0.17-4.4h-0.04c-0.34 1.16-0.73 2.41-1.23 3.81l-1.9 5.03h-0.78l-1.74-4.92c-0.48-1.46-0.86-2.74-1.14-3.92h-0.04c-0.04 1.26-0.11 2.92-0.21 4.5l-0.29 4.41h-0.97l0.72-10.09h1.24l1.87 5.29c0.43 1.27 0.76 2.36 1.02 3.43h0.03c0.25-1.02 0.61-2.12 1.07-3.43l1.97-5.29h1.26l0.65 10.09h-0.98l-0.34-4.51z" fill="#000"/>
  <path d="m107.4 188.5h-3.82v3.95h4.23v0.83h-5.2v-10.09h4.97v0.84h-4v3.57h3.82v0.9z" fill="#000"/>
  <path d="m111.6 193.4v-10.09h1.1l3.3 5.1c0.77 1.22 1.37 2.29 1.87 3.37l0.04-0.02c-0.11-1.36-0.13-2.58-0.13-4.18v-4.27h0.95v10.09h-1.02l-3.27-5.1c-0.71-1.17-1.4-2.34-1.93-3.49l-0.04 0.02c0.07 1.27 0.09 2.47 0.09 4.16v4.41h-0.96z" fill="#000"/>
  <path d="m187.6 160.5-0.08 14.38-0.53 0.34-14.33-0.08-0.39-0.49-0.15-13.98 0.62-0.46 14.47-0.08 0.39 0.37zm-13.88 0.53-0.23 5.8c0.78 0.14 1.14-0.64 1.84-0.74 0.84-0.47 1.06-1.3 1.34-2.1-0.7-0.27-1.81 0.13-2.39-0.46l-0.13-1.31 0.92-0.15 0.45 0.67c1.05-0.05 2.35 0.06 2.95-0.62l0.2-1-0.4-0.27-4.55 0.18zm6.06-0.03-0.23 1.32 0.39 0.4 0.68-0.18 0.23-1.46 5.87-0.31v-0.25l-6.94 0.48zm2.24 2.05-0.16 1.09 0.78 0.33 3.03-0.15 1.05-1.19-0.41-0.38-4.29 0.3zm-2.94 1.89c-0.71 1.25-1.76 2.73-3.21 3.29-0.6 0.54-1.89 0.49-2.15 1.43v4.63l0.45 0.23 3.18-0.3-0.1-0.49-2.18-0.31 0.05-3.37 1.45-1.23 1.15 0.67 0.35 2.8 1.1-0.23-0.09-3.03-0.4-0.85 0.54-0.68 1.45 0.68 0.4-0.84-1.05-1.05-0.94-1.35zm3.2 3.45-0.44 1.05 0.77 0.5 3.47-0.33 0.74-0.84-0.54-0.64-4 0.26zm-0.16 2.32-0.47 3.71 0.54 0.31 4.53-0.26 0.45-0.84-0.4-2.82-0.44-0.44-4.21 0.34zm4.27 0.77 0.33 2.35-3.57 0.08-0.16-2.3 3.4-0.13z" fill="#B51227"/>
  <path d="m130.3 74.87h-76.9c-0.02 14.05-0.25 25.31 9.95 32.17 6.79 4.71 16.44 5.9 28.33 5.9 11.9 0 21.55-2.23 26.87-5.9 11.1-7.56 11.37-17.8 11.75-32.17z" fill="#231815"/>
  <path d="m84.83 71.44c-1.05 0-1.2-0.96-1.2-1.52v-28.2c0-0.94 0.64-1.53 1.35-1.53 0.77 0 1.24 0.77 1.24 1.44v28.38c0 0.77-0.63 1.43-1.39 1.43z" fill="#231815"/>
  <path d="m89.66 66.82c-0.94 0-1.4-0.7-1.4-1.4v-24.04c0-0.77 0.59-1.34 1.3-1.34 0.82 0 1.29 0.72 1.29 1.34v24.04c0 0.82-0.54 1.4-1.19 1.4z" fill="#231815"/>
  <path d="m95.16 68.14c-0.87 0-1.34-0.77-1.34-1.39v-26.71c0-0.83 0.67-1.38 1.34-1.38 0.76 0 1.4 0.67 1.4 1.38v26.78c0 0.76-0.64 1.32-1.4 1.32z" fill="#231815"/>
  <path d="m99.18 75.27h-2.46v-35.23c0-0.93 0.67-1.49 1.39-1.49 0.76 0 1.28 0.66 1.28 1.37l-0.21 35.35z" fill="#231815"/>
  <path d="m82.29 42.61-22.67 0.94c-1.01 0-1.4 0.85-1.33 1.64 0.06 0.76 0.59 1.32 1.43 1.29l22.62-0.76-0.05-3.11z" fill="#231815"/>
  <path d="m82.39 48.71-22.9 0.16c-0.88 0-1.33 0.66-1.28 1.43 0.05 0.76 0.49 1.42 1.38 1.42l22.8-0.16v-2.85z" fill="#231815"/>
  <path d="m101.3 40.91 22.01-0.88c0.84-0.08 1.38 0.41 1.43 1.23s-0.39 1.65-1.23 1.65l-22.21 1.08v-3.08z" fill="#231815"/>
  <path d="m101.3 48.18 22.21 0.16c0.84 0 1.33 0.45 1.28 1.37-0.05 0.85-0.33 1.62-1.17 1.57l-22.32-0.2v-2.9z" fill="#231815"/>
  <path d="m146.5 37.34-49.45-24.63 3.69-1.86c1.34-0.67 1.66-2.03 0.92-3.15-0.74-1.04-2.16-1.19-3.23-0.58l-6.65 3.51-6.23-3.1c-1.27-0.6-2.61-0.21-3.04 1.03-0.56 1.26 0.15 2.68 1.22 3.17l3 1.49-49.29 24.12c-1.34 0.67-1.63 2.12-1.07 3.06 0.74 1.31 2.19 1.65 3.53 0.91l52.37-26.23 52.47 26.15c1.34 0.83 2.6 0.26 3.07-0.83 0.61-1.29-0.08-2.55-1.31-3.06z" fill="#231815"/>
  <path d="m66.12 125.9h2.54v-1.19h1.44v1.11h2.11v1.44h-2.11v1.16h1.86v1.36h-1.86v1.04h2.45v1.44h-5.94v-1.44h2.11v-1.1h-1.69v-1.35h1.69v-1.11h-2.6v-1.36zm6.54 7.46v1.26l-1.67 3.32 1.27 1.26h10.38v1.36h-11.35l-1.19-1.54-0.95 1.54h-2.34l1.9-2.7-1.68-1.44 1.09-1.86h-1.2v-1.35h5.74v0.15zm-3.64 1.26-0.74 1.6 0.84 0.84 1.33-2.44h-1.43zm4.42-9.11h8.64v1.45h-3.47l-0.4 1.45h3.71v8.65h-7.13v-8.65h1.8l0.4-1.45h-3.55v-1.45zm2.72 4.09v6.26h1.04v-2.14h-0.78v-1.19h0.78v-2.22h-1.04v-0.71zm2.23 0v1.27h1.05v1.19h-1.05v1.25h1.05v1.2h-1.05v1.35h1.53v-6.26h-1.53z" fill="#231815"/>
  <path d="m107.6 124.4h13.43v4.53h-11.9l-1.69 11.69h-1.36l1.52-11.85v-4.37zm1.45 1.5v1.62h10.48v-1.62h-10.48zm1.07 4h10.61v1.44h-6.61l-0.94 2.25 5.03-0.45-0.78-1.36h1.82l1.94 3.52h-1.86l-0.47-0.84-8.19 0.84-0.47-1.44 1.26-0.46 0.92-2.06h-2.26v-1.44zm-0.57 6.55h4.7v-1.15h1.6v1.15h4.21v1.45h-4.21v1.15h5.81v1.45h-12.71v-1.45h5.3v-1.15h-4.7v-1.45z" fill="#231815"/>
</svg>